<?xml version="1.0" encoding="UTF-8"?>
<svg xmlns="http://www.w3.org/2000/svg" xmlns:xlink="http://www.w3.org/1999/xlink" width="256pt" height="256pt" viewBox="0 0 256 256" version="1.1">
<g id="surface461">
<rect x="0" y="0" width="256" height="256" style="fill:rgb(86.872935%,77.406793%,29.787817%);fill-opacity:1;stroke:none;"/>
<path style=" stroke:none;fill-rule:nonzero;fill:rgb(0.194871%,27.534874%,1.337739%);fill-opacity:1;" d="M 256 128 C 256 198.691406 198.691406 256 128 256 C 57.308594 256 0 198.691406 0 128 C 0 57.308594 57.308594 0 128 0 C 198.691406 0 256 57.308594 256 128 "/>
<path style=" stroke:none;fill-rule:nonzero;fill:rgb(71.067338%,2.677681%,37.431668%);fill-opacity:1;" d="M 128 128 C 163.347656 128 192 156.652344 192 192 C 192 227.347656 163.347656 256 128 256 "/>
<path style=" stroke:none;fill-rule:nonzero;fill:rgb(23.718595%,60.64614%,96.013495%);fill-opacity:1;" d="M 9.742188 176.984375 C -6.617188 137.488281 -2.179688 92.433594 21.570312 56.886719 C 45.324219 21.34375 85.25 0 128 0 C 170.75 0 210.675781 21.34375 234.429688 56.886719 C 258.179688 92.433594 262.617188 137.488281 246.257812 176.984375 "/>
<path style=" stroke:none;fill-rule:nonzero;fill:rgb(71.067338%,2.677681%,37.431668%);fill-opacity:1;" d="M 112 96 C 112 118.089844 94.089844 136 72 136 L 72 96 Z M 112 96 "/>
<path style=" stroke:none;fill-rule:nonzero;fill:rgb(71.067338%,2.677681%,37.431668%);fill-opacity:1;" d="M 184 136 C 161.910156 136 144 118.089844 144 96 L 184 96 Z M 184 136 "/>
<path style=" stroke:none;fill-rule:nonzero;fill:rgb(86.872935%,77.406793%,29.787817%);fill-opacity:1;" d="M 72 136 C 58.640625 136 46.164062 129.332031 38.742188 118.222656 C 31.320312 107.113281 29.933594 93.035156 35.042969 80.691406 C 40.15625 68.351562 51.09375 59.375 64.195312 56.769531 C 77.300781 54.164062 90.835938 58.269531 100.285156 67.714844 L 72 96 Z M 72 136 "/>
<path style=" stroke:none;fill-rule:nonzero;fill:rgb(86.872935%,77.406793%,29.787817%);fill-opacity:1;" d="M 155.714844 67.714844 C 165.164062 58.269531 178.699219 54.164062 191.804688 56.769531 C 204.90625 59.375 215.84375 68.351562 220.957031 80.691406 C 226.066406 93.035156 224.679688 107.113281 217.257812 118.222656 C 209.835938 129.332031 197.359375 136 184 136 L 184 96 Z M 155.714844 67.714844 "/>
<path style=" stroke:none;fill-rule:nonzero;fill:rgb(0.194871%,27.534874%,1.337739%);fill-opacity:1;" d="M 100.285156 67.714844 C 107.785156 75.21875 112 85.390625 112 96 L 72 96 Z M 100.285156 67.714844 "/>
<path style=" stroke:none;fill-rule:nonzero;fill:rgb(0.194871%,27.534874%,1.337739%);fill-opacity:1;" d="M 144 96 C 144 85.390625 148.214844 75.21875 155.714844 67.714844 L 184 96 Z M 144 96 "/>
<path style=" stroke:none;fill-rule:nonzero;fill:rgb(23.718595%,60.64614%,96.013495%);fill-opacity:1;" d="M 80 96 C 80 100.417969 76.417969 104 72 104 C 67.582031 104 64 100.417969 64 96 C 64 91.582031 67.582031 88 72 88 C 76.417969 88 80 91.582031 80 96 L 192 96 C 192 100.417969 188.417969 104 184 104 C 179.582031 104 176 100.417969 176 96 C 176 91.582031 179.582031 88 184 88 C 188.417969 88 192 91.582031 192 96 "/>
</g>
</svg>
