<svg version="1.1"
     baseProfile="full"
     width="1354" height="154"
     xmlns="http://www.w3.org/2000/svg">

  <g stroke="black" fill="none" stroke-width="5" stroke-linecap="butt">
    <path d=
      "M 02 118 L 52 31.39746 L 102 118 L 145.30127 143
      M 27 74.69873 H 77
      M 102 118 L 152 31.39746 L 195.30127 6.39746
      M 177 74.69873 L 212.35534 39.34339
      M 152 31.39746 L 202 118 L 252 31.39746 L 302 118 L 352 31.39746 L 402 118 L 452 31.39746 L 502 118 L 552 31.39746 H 652 L 695.30127 6.39746
      M 227 143 L 327 6.39746
      M 327 74.69873 H 377
      M 552 31.39746 L 602 118 L 652 31.39746
      M 677 74.69873 L 712.35534 39.34339
      M 652 31.39746 L 702 118 L 766.43 6.39746 L 780.86 31.39746 H 752
      M 752 31.39746 L 802 118 L 845.30127 143
      M 802 118 L 852 31.39746 L 902 118 L 966.43 6.39746 L 980.86 31.39746 H 952
      M 952 31.39746 L 1002 118 L 1052 31.39746 L 1102 118 L 1152 31.39746 L 1195.30127 6.39746
      M 1027 74.69873 H 1077
      M 1158.69873 143 L 1202 118 L 1252 31.39746 L 1302 118 L 1352 31.39746
      M 1152 31.39746 L 1202 118"
      />
  </g>

</svg>
