<?xml version="1.0" encoding="UTF-8"?>
<svg width="256pt" height="256pt" version="1.1" viewBox="0 0 256 256" xmlns="http://www.w3.org/2000/svg">
<rect width="256" height="256" fill-opacity="0"/>
<path d="m256 128c0 70.691-57.309 128-128 128s-128-57.309-128-128 57.309-128 128-128 128 57.309 128 128" fill="#dec54c"/>
<path d="m128 128c35.348 0 64 28.652 64 64s-28.652 64-64 64" fill="#b5075f"/>
<path d="m9.7422 176.98c-16.359-39.496-11.922-84.551 11.828-120.1 23.754-35.543 63.68-56.887 106.43-56.887s82.676 21.344 106.43 56.887c23.75 35.547 28.188 80.602 11.828 120.1" fill="#3c9bf5"/>
<path d="m112 96c0 22.09-17.91 40-40 40v-40z" fill="#b5075f"/>
<path d="m184 136c-22.09 0-40-17.91-40-40h40z" fill="#b5075f"/>
<path d="m72 136c-13.359 0-25.836-6.668-33.258-17.777-7.4219-11.109-8.8086-25.188-3.6992-37.531 5.1133-12.34 16.051-21.316 29.152-23.922 13.105-2.6055 26.641 1.5 36.09 10.945l-28.285 28.285z" fill="#004603"/>
<path d="m155.71 67.715c9.4492-9.4453 22.984-13.551 36.09-10.945 13.102 2.6055 24.039 11.582 29.152 23.922 5.1094 12.344 3.7227 26.422-3.6992 37.531s-19.898 17.777-33.258 17.777v-40z" fill="#004603"/>
<path d="m100.29 67.715c7.5 7.5039 11.715 17.676 11.715 28.285h-40z" fill="#dec54c"/>
<path d="m144 96c0-10.609 4.2148-20.781 11.715-28.285l28.285 28.285z" fill="#dec54c"/>
<path d="m80 96c0 4.418-3.582 8-8 8s-8-3.582-8-8 3.582-8 8-8 8 3.582 8 8h112c0 4.418-3.582 8-8 8s-8-3.582-8-8 3.582-8 8-8 8 3.582 8 8" fill="#3c9bf5"/>
</svg>
