<svg width="256pt" height="256pt" version="1.1" viewBox="0 0 256 256" xmlns="http://www.w3.org/2000/svg" xmlns:xlink="http://www.w3.org/1999/xlink">
  <!-- Given radius R... -->
  <clipPath id="overlip">
    <!-- width = 2R, height = R - Rsin(pi/8) -->
    <rect width="256" height="176.98347934273"/>
  </clipPath>
  <defs>
    <!-- r = 5R/16, r_inner = R/16 -->
    <g id="eye">
      <!-- x_stop = -y_stop = rcos(pi/4) -->
      <path d="M 0 40 A 40 40 0 1 1 28.28427124746 -28.28427124746 L 0 0" fill="#004603"/>
      <path d="M 28.28427124746 -28.28427124746 A 40 40 0 0 1 40 0 L 0 0" fill="#dec54c"/>
      <path d="M 40 0 A 40 40 0 0 1 0 40 L 0 0" fill="#3c9bf5"/>
      <circle cx="0" cy="0" r="8" fill="#b5075f"/>
    </g>
  </defs>
  <rect width="256" height="256" fill="#004603"/>
  <circle cx="128" cy="128" r="128" fill="#dec54c"/>
  <path d="M 128 256 A 64 64 0 0 0 128 128" fill="#3c9bf5"/>
  <circle cx="128" cy="128" r="128" clip-path="url(#overlip)" fill="#b5075f"/>
  <!-- eye_y = 3R/4, left eye_x = 9R/16, right eye_x = 23R/16 -->
  <use xlink:href="#eye" transform="matrix(1 0 0 1 72 96)"/>
  <use xlink:href="#eye" transform="matrix(-1 0 0 1 184 96)"/>
</svg>
